<svg id="visual" viewBox="0 0 960 30" width="960" height="30" xmlns="http://www.w3.org/2000/svg" xmlns:xlink="http://www.w3.org/1999/xlink" version="1.1"><path d="M0 21L22.8 21.7C45.7 22.3 91.3 23.7 137 23.3C182.7 23 228.3 21 274 20.3C319.7 19.7 365.3 20.3 411.2 21.3C457 22.3 503 23.7 548.8 23.2C594.7 22.7 640.3 20.3 686 20.3C731.7 20.3 777.3 22.7 823 22.7C868.7 22.7 914.3 20.3 937.2 19.2L960 18L960 31L937.2 31C914.3 31 868.7 31 823 31C777.3 31 731.7 31 686 31C640.3 31 594.7 31 548.8 31C503 31 457 31 411.2 31C365.3 31 319.7 31 274 31C228.3 31 182.7 31 137 31C91.3 31 45.7 31 22.8 31L0 31Z" fill="#f8f9fa" stroke-linecap="round" stroke-linejoin="miter"></path></svg>