<svg id="visual" viewBox="0 0 1226 100" width="1226" height="100" xmlns="http://www.w3.org/2000/svg" xmlns:xlink="http://www.w3.org/1999/xlink" version="1.1"><path d="M0 112L34.3 115.7C68.7 119.3 137.3 126.7 205.8 126.3C274.3 126 342.7 118 411.2 123.3C479.7 128.7 548.3 147.3 617 154.8C685.7 162.3 754.3 158.7 823 152.3C891.7 146 960.3 137 1028.8 132.3C1097.3 127.7 1165.7 127.3 1234.2 124.7C1302.7 122 1371.3 117 1405.7 114.5L1440 112L1440 0L1405.7 0C1371.3 0 1302.7 0 1234.2 0C1165.7 0 1097.3 0 1028.8 0C960.3 0 891.7 0 823 0C754.3 0 685.7 0 617 0C548.3 0 479.7 0 411.2 0C342.7 0 274.3 0 205.8 0C137.3 0 68.7 0 34.3 0L0 0Z" fill="#32719c" stroke-linecap="round" stroke-linejoin="miter"></path></svg>