<svg xmlns="http://www.w3.org/2000/svg" viewBox="0 0 500 500"><g id="freepik--Shadow--inject-32"><ellipse id="freepik--path--inject-32" cx="250" cy="416.24" rx="193.89" ry="11.32" style="fill:#f5f5f5"></ellipse></g><g id="freepik--People--inject-32"><path d="M427.28,393.89a5.56,5.56,0,0,0-2-.5c-1.89-1.32-5.17-8.18-5.17-8.18s-4.49-13.18-8.08-27.64c1.79-.19,2.85-.32,2.85-.32l-12.25-72-.61-4a73.49,73.49,0,0,0,1.46-21.94,22.87,22.87,0,0,0-.74-5.17c1.49-3.46,5.53-13,6.32-17.18,1-5.1-1.1-20.28-1.1-20.28h-.5l-.25-2.9a3.62,3.62,0,0,0,.76-.94,9.88,9.88,0,0,0-.4-2.84l13.51-1-4.55-60-76.19,3.6,10.35,61.89,8.3-.65a8.55,8.55,0,0,0,.28,2.57,3.59,3.59,0,0,0,1,.74l.45,2.93-.45.07s2.4,15.54,3.09,19.12c.35,1.77,3.17,7.81,5.93,13.46-1.06.75-2.19,1.57-3.41,2.53-8,6.32-.23,16.2,11.29,17.75,1.66,5.37,3.29,9.25,3.29,9.25l-.55,4.69h0a.49.49,0,0,0,0,.11c-.11.27-.22.55-.32.83l-.16.45c-.1.27-.19.55-.29.83l-.16.48q-.13.41-.27.84c-.05.16-.1.33-.16.5s-.17.57-.25.86l-.15.52c-.09.29-.17.59-.25.88s-.09.36-.14.53l-.24.93-.12.52c-.09.34-.17.69-.25,1,0,.14-.07.29-.1.43-.11.49-.22,1-.32,1.47-.05.2-.09.41-.13.62l-.18.89-.15.77-.15.76c0,.28-.1.56-.14.84s-.09.48-.13.72l-.15.88c0,.22-.07.45-.11.68l-.15.93-.09.64c-.05.33-.1.65-.14,1l-.09.62c0,.33-.09.67-.14,1s-.05.38-.07.56c-.05.36-.09.72-.14,1.08l-.06.48c0,.38-.09.77-.13,1.16,0,.1,0,.2,0,.3-.22,2-.42,4-.59,6v.07c0,.44-.07.87-.1,1.31l0,.34-.09,1.2,0,.44c0,.39-.06.77-.08,1.16,0,.16,0,.31,0,.47,0,.37,0,.74-.07,1.11l0,.53-.06,1.06,0,.56c0,.35,0,.69-.05,1l0,.59c0,.33,0,.65,0,1l0,.68c0,.29,0,.59,0,.88l0,.95,0,.58c0,1-.06,2.06-.09,3.07l0,1c0,.16,0,.32,0,.47,0,.38,0,.75,0,1.12,0,.1,0,.21,0,.31,0,.39,0,.77,0,1.15v.26c0,1,0,2,0,3,0,.32,0,.63,0,.93v3.05h0c0,7.51.26,12.48.26,12.48a51.89,51.89,0,0,0,9.64.68,171.25,171.25,0,0,0,5.79,27.45,5.14,5.14,0,0,0-.49,1.13,1.12,1.12,0,0,0-.12.35,15.22,15.22,0,0,0,0,1.91,51.79,51.79,0,0,0,.86,6.3l.45-.07-.38-4c-.12-1.35,1.13.08,1.63,1.49s1.34,2.85,4.29,2.5c3.45-.42,4.85-.75,3.86-1.47a5.52,5.52,0,0,0-1.9-.71,12.14,12.14,0,0,1-2.48-3.9c-.81-1.82-1.48-3.53-1.85-4.5-.35-3-1.57-14.34-2.06-26.69,4.8-.21,9.71-.58,13.87-1a169.94,169.94,0,0,0,12.08,27.86,12.88,12.88,0,0,0-.41,2.21,14.77,14.77,0,0,0,.21,1.89,51.16,51.16,0,0,0,1.53,6.18l.44-.12-.8-3.91c-.27-1.33,1.12-.05,1.77,1.29s1.65,2.7,4.54,2C427,395,428.34,394.5,427.28,393.89ZM374.36,248.52c-1.93-3.9-6-11.38-6.35-12.49s-3.83-16.56-3.83-16.56l-.63.1-.32-1.87a1.51,1.51,0,0,0,1.38-1.65,18.71,18.71,0,0,1,.11-2.71l37.07-2.9a29.59,29.59,0,0,1,1,3.35,1.52,1.52,0,0,0,1.74,1.28l.12,1.59h-.22s.24,15.7,0,17-4.84,12.13-4.84,12.13c-2.41-5.21-1.67-11.85-4.35-18.52s-13.7-7.89-17.79-5-2.28,8.93-.23,17.32c1.16,4.76.09,7-2.6,9.26C374.45,248.64,374.36,248.52,374.36,248.52Z" style="fill:#2D2E35"></path><g style="opacity:0.7000000000000001;isolation:isolate"><path d="M427.28,393.89a5.56,5.56,0,0,0-2-.5c-1.89-1.32-5.17-8.18-5.17-8.18s-4.49-13.18-8.08-27.64c1.79-.19,2.85-.32,2.85-.32l-12.25-72-.61-4a73.49,73.49,0,0,0,1.46-21.94,22.87,22.87,0,0,0-.74-5.17c1.49-3.46,5.53-13,6.32-17.18,1-5.1-1.1-20.28-1.1-20.28h-.5l-.25-2.9a3.62,3.62,0,0,0,.76-.94,9.88,9.88,0,0,0-.4-2.84l13.51-1-4.55-60-76.19,3.6,10.35,61.89,8.3-.65a8.55,8.55,0,0,0,.28,2.57,3.59,3.59,0,0,0,1,.74l.45,2.93-.45.07s2.4,15.54,3.09,19.12c.35,1.77,3.17,7.81,5.93,13.46-1.06.75-2.19,1.57-3.41,2.53-8,6.32-.23,16.2,11.29,17.75,1.66,5.37,3.29,9.25,3.29,9.25l-.55,4.69h0a.49.49,0,0,0,0,.11c-.11.27-.22.55-.32.83l-.16.45c-.1.27-.19.55-.29.83l-.16.48q-.13.41-.27.84c-.05.16-.1.33-.16.5s-.17.57-.25.86l-.15.52c-.09.29-.17.59-.25.88s-.09.36-.14.53l-.24.93-.12.52c-.09.34-.17.69-.25,1,0,.14-.07.29-.1.43-.11.49-.22,1-.32,1.47-.05.2-.09.41-.13.62l-.18.89-.15.77-.15.76c0,.28-.1.56-.14.84s-.09.48-.13.72l-.15.88c0,.22-.07.45-.11.68l-.15.93-.09.64c-.05.33-.1.65-.14,1l-.09.62c0,.33-.09.67-.14,1s-.05.38-.07.56c-.05.36-.09.72-.14,1.08l-.06.48c0,.38-.09.77-.13,1.16,0,.1,0,.2,0,.3-.22,2-.42,4-.59,6v.07c0,.44-.07.87-.1,1.31l0,.34-.09,1.2,0,.44c0,.39-.06.77-.08,1.16,0,.16,0,.31,0,.47,0,.37,0,.74-.07,1.11l0,.53-.06,1.06,0,.56c0,.35,0,.69-.05,1l0,.59c0,.33,0,.65,0,1l0,.68c0,.29,0,.59,0,.88l0,.95,0,.58c0,1-.06,2.06-.09,3.07l0,1c0,.16,0,.32,0,.47,0,.38,0,.75,0,1.12,0,.1,0,.21,0,.31,0,.39,0,.77,0,1.15v.26c0,1,0,2,0,3,0,.32,0,.63,0,.93v3.05h0c0,7.51.26,12.48.26,12.48a51.89,51.89,0,0,0,9.64.68,171.25,171.25,0,0,0,5.79,27.45,5.14,5.14,0,0,0-.49,1.13,1.12,1.12,0,0,0-.12.35,15.22,15.22,0,0,0,0,1.91,51.79,51.79,0,0,0,.86,6.3l.45-.07-.38-4c-.12-1.35,1.13.08,1.63,1.49s1.34,2.85,4.29,2.5c3.45-.42,4.85-.75,3.86-1.47a5.52,5.52,0,0,0-1.9-.71,12.14,12.14,0,0,1-2.48-3.9c-.81-1.82-1.48-3.53-1.85-4.5-.35-3-1.57-14.34-2.06-26.69,4.8-.21,9.71-.58,13.87-1a169.94,169.94,0,0,0,12.08,27.86,12.88,12.88,0,0,0-.41,2.21,14.77,14.77,0,0,0,.21,1.89,51.16,51.16,0,0,0,1.53,6.18l.44-.12-.8-3.91c-.27-1.33,1.12-.05,1.77,1.29s1.65,2.7,4.54,2C427,395,428.34,394.5,427.28,393.89ZM374.36,248.52c-1.93-3.9-6-11.38-6.35-12.49s-3.83-16.56-3.83-16.56l-.63.1-.32-1.87a1.51,1.51,0,0,0,1.38-1.65,18.71,18.71,0,0,1,.11-2.71l37.07-2.9a29.59,29.59,0,0,1,1,3.35,1.52,1.52,0,0,0,1.74,1.28l.12,1.59h-.22s.24,15.7,0,17-4.84,12.13-4.84,12.13c-2.41-5.21-1.67-11.85-4.35-18.52s-13.7-7.89-17.79-5-2.28,8.93-.23,17.32c1.16,4.76.09,7-2.6,9.26C374.45,248.64,374.36,248.52,374.36,248.52Z" style="fill:#fff"></path></g><g style="opacity:0.2;isolation:isolate"><path d="M398.87,173.87A16.18,16.18,0,1,0,378,189.36l-.28,3.34-5.46-.4-.44,6,5.4.4-.38,4.64,6,.5.39-4.7,6.68.48.44-6-6.62-.48.27-3.16A16.19,16.19,0,0,0,398.87,173.87Zm-26.3,0A10.13,10.13,0,1,1,382.69,184,10.13,10.13,0,0,1,372.57,173.87Z" style="fill:#fff"></path></g><path d="M161.2,276.26a7,7,0,0,1,3.25.29,2.74,2.74,0,0,1,.39,1.21c2.12.55,8.11,1.83,11.3-.22a5.61,5.61,0,0,0,1.09-1c3-3.27,5-7.77,6.94-11.71,1-2,1.9-3.94,2.8-5.93.42-.92.94-3.18,2.17-3.14a1.73,1.73,0,0,1,1-1.58c.59-.35,1.28-.7,1.43-1.37.2-.89-.72-1.6-1.51-2.08a6.38,6.38,0,0,1-2.73-2.61,5.88,5.88,0,0,1-.4-2.32,23.9,23.9,0,0,1,3.68-13.31,11.32,11.32,0,0,1,2.27-2.74c2.77-2.32,6.85-2.34,10.31-1.33,2.64.78,5,1,6.65,3.4a19.1,19.1,0,0,1,2.29,17.38,5.4,5.4,0,0,0-.5,1.92,1.6,1.6,0,0,0,1,1.57c1.07.31,1.45.36,2.06,1.31,2.09,3.24,13.16,20.18,18.68,22.29,5,1.9,11.47-.48,13.67-1.41.06-.42.12-.79.19-1.08.16-.68,2.59-.45,3.26-.27s.53,7.36-.23,8.44a7.1,7.1,0,0,1-2.75-.37c-2.92,1.72-7.85,4.05-11.78,3-8.09-2.19-14.28-9.17-17.65-13.86,1.7,12.62,2.74,27.08,2.74,27.08l-3.87.93.35,2.57,7.53,38.85L231.54,378l.9-.3-.1,3.44-1.18.37.35,1.55L232.6,388l.58-.07.63.41a3.11,3.11,0,0,1,.91-1.81.83.83,0,0,1,.69-.1c.27.07.41.2.44.39s-.3.64-.7.95a2.24,2.24,0,0,1,1.23-.09.58.58,0,0,1,.35.32.51.51,0,0,1,0,.59,1.12,1.12,0,0,1-.85.25,7.48,7.48,0,0,1-1.62-.24,15.1,15.1,0,0,0,6.19,2.29c3.34.19,1.89,2.43-1.7,3.07l-8.86,1.56c-2.55.45-1.34-2-2-6.55,0-.1.3-.22.77-.33,0,0-1.46-4.86-1.48-4.86l-.26-.87-1.2.38-1.28-2.89.61-.2c-6.35-15.93-10.91-29.27-14.14-40.38-1.78-6.12-3.17-11.57-4.23-16.4l.3,17.83v38.43l.94-.14-.71,3.37-1.22.16.07,1.58.22,5,.59,0,.54.52c0-.11.49-1.32,1.21-1.63a.88.88,0,0,1,.71,0c.25.12.37.28.36.46s-.41.58-.85.81A2.23,2.23,0,0,1,210,390a.54.54,0,0,1,.29.37.51.51,0,0,1-.13.58.76.76,0,0,1-.48.13,5.94,5.94,0,0,1-2-.56,15,15,0,0,0,5.7,3.34c3.26.76,1.44,2.72-2.2,2.72h-9c-2.59,0-1-2.2-.87-6.8,0-.11.33-.17.81-.2,0,0-.59-5-.61-5l-.1-.9-1.25.17-.76-3.07.64-.1c-9-43.3-9.18-67.54-7.67-80.37l-6.19-1,1.19-25.48c-3.12,4.65-7.44,10.56-9.69,11.22-2.76.82-9.41-.39-12.75-1.1,0,.05,0,.1,0,.14-.1.69-2.54.67-3.23.55S160.54,277.4,161.2,276.26Z" style="fill:#2D2E35"></path><polygon points="248.93 266.17 247.29 322.91 167.69 329.5 161.42 268.42 248.93 266.17" style="fill:#2D2E35"></polygon><g style="opacity:0.7000000000000001;isolation:isolate"><path d="M161.2,276.26a7,7,0,0,1,3.25.29,2.74,2.74,0,0,1,.39,1.21c2.12.55,8.11,1.83,11.3-.22a5.61,5.61,0,0,0,1.09-1c3-3.27,5-7.77,6.94-11.71,1-2,1.9-3.94,2.8-5.93.42-.92.94-3.18,2.17-3.14a1.73,1.73,0,0,1,1-1.58c.59-.35,1.28-.7,1.43-1.37.2-.89-.72-1.6-1.51-2.08a6.38,6.38,0,0,1-2.73-2.61,5.88,5.88,0,0,1-.4-2.32,23.9,23.9,0,0,1,3.68-13.31,11.32,11.32,0,0,1,2.27-2.74c2.77-2.32,6.85-2.34,10.31-1.33,2.64.78,5,1,6.65,3.4a19.1,19.1,0,0,1,2.29,17.38,5.4,5.4,0,0,0-.5,1.92,1.6,1.6,0,0,0,1,1.57c1.07.31,1.45.36,2.06,1.31,2.09,3.24,13.16,20.18,18.68,22.29,5,1.9,11.47-.48,13.67-1.41.06-.42.12-.79.19-1.08.16-.68,2.59-.45,3.26-.27s.53,7.36-.23,8.44a7.1,7.1,0,0,1-2.75-.37c-2.92,1.72-7.85,4.05-11.78,3-8.09-2.19-14.28-9.17-17.65-13.86,1.7,12.62,2.74,27.08,2.74,27.08l-3.87.93.35,2.57,7.53,38.85L231.54,378l.9-.3-.1,3.44-1.18.37.35,1.55L232.6,388l.58-.07.63.41a3.11,3.11,0,0,1,.91-1.81.83.83,0,0,1,.69-.1c.27.07.41.2.44.39s-.3.64-.7.95a2.24,2.24,0,0,1,1.23-.09.58.58,0,0,1,.35.32.51.51,0,0,1,0,.59,1.12,1.12,0,0,1-.85.25,7.48,7.48,0,0,1-1.62-.24,15.1,15.1,0,0,0,6.19,2.29c3.34.19,1.89,2.43-1.7,3.07l-8.86,1.56c-2.55.45-1.34-2-2-6.55,0-.1.3-.22.77-.33,0,0-1.46-4.86-1.48-4.86l-.26-.87-1.2.38-1.28-2.89.61-.2c-6.35-15.93-10.91-29.27-14.14-40.38-1.78-6.12-3.17-11.57-4.23-16.4l.3,17.83v38.43l.94-.14-.71,3.37-1.22.16.07,1.58.22,5,.59,0,.54.52c0-.11.49-1.32,1.21-1.63a.88.88,0,0,1,.71,0c.25.12.37.28.36.46s-.41.58-.85.81A2.23,2.23,0,0,1,210,390a.54.54,0,0,1,.29.37.51.51,0,0,1-.13.58.76.76,0,0,1-.48.13,5.94,5.94,0,0,1-2-.56,15,15,0,0,0,5.7,3.34c3.26.76,1.44,2.72-2.2,2.72h-9c-2.59,0-1-2.2-.87-6.8,0-.11.33-.17.81-.2,0,0-.59-5-.61-5l-.1-.9-1.25.17-.76-3.07.64-.1c-9-43.3-9.18-67.54-7.67-80.37l-6.19-1,1.19-25.48c-3.12,4.65-7.44,10.56-9.69,11.22-2.76.82-9.41-.39-12.75-1.1,0,.05,0,.1,0,.14-.1.69-2.54.67-3.23.55S160.54,277.4,161.2,276.26Z" style="fill:#fff"></path><polygon points="248.93 266.17 247.29 322.91 167.69 329.5 161.42 268.42 248.93 266.17" style="fill:#fff"></polygon></g><path d="M129.8,256.63l-.27-2.73c.31-.29,2.09-4,2-5s-3.38-2.58-4-2.37-2,4.73-2,5.52,1.22,2,1.22,2l.12,3-.51.06-.19,16.44s-9.75-17.39-12.47-18.58l-5.16-2.4s-.2.26-.52.72c-1.16-.26-2.32-.5-3.49-.7-.56-.1-1.13-.18-1.69-.27a4.9,4.9,0,0,1-.47-1.05,17.63,17.63,0,0,0,3.37-.19h0s6.61-.66,7.89-5-2.36-10.95-2.36-10.95,2-3.65-3.41-6.52a3.39,3.39,0,0,0-2.22-.38,10.29,10.29,0,0,0-8.59-2.56c-5.88,1-4.86,11.76-4.85,11.92-1.54,1.22-5.61,5.11-1.9,9.88l.15-.6c1.29,1.65,4,3,7,3.69a3.69,3.69,0,0,1-.41,1.15l-1.26-.07c-1.85,0-3.82.08-5.37.18H86.15v-.27c-2.18.22-12.65,11.4-12.65,11.4L78,250.38l-.35-.11.87-2.51a13.35,13.35,0,0,0,1.87-1.63c.1-.13,0-.46-.1-.89a26.66,26.66,0,0,0,2-2.29l1.43.8a3.05,3.05,0,0,0,.42-.42,4.1,4.1,0,0,0,3.54-6.3,2.49,2.49,0,0,0,.11-.56L80,232.1a2.46,2.46,0,0,1,0,.26,18.18,18.18,0,0,1-4.84-5.9c0-.48,0-.82-.27-.94-.8-.45-3.08,2.1-5.09,5.69s-3,6.86-2.18,7.31c.22.12.54,0,.94-.25a18.22,18.22,0,0,1,7.53,1l-.11.1,3.72,2.08c-.27.24-.55.46-.84.68-.33-.52-.6-.88-.7-.88a12.33,12.33,0,0,0-3.25,1.81c-.36.43,1.53,3.92,1.53,3.92l-1.41,2.35-.51-.18s-8.81,14.06-6.88,19.22c1.56,4.16,13.11-2.73,17.51-5.55-.3,9,.13,19.19.13,19.19l-1.57,15.3c-.81,2-1.89,4.7-3.06,7.75-3.55,9.18-8,21.63-9.09,28.78a4.48,4.48,0,0,0,0,.64v0c0,.21,0,.42,0,.64,0,0,0,.09,0,.13s0,.37.07.57l0,.16a5.59,5.59,0,0,0,.12.56,1.05,1.05,0,0,0,0,.19c.05.19.1.38.16.57l.06.2c.07.19.14.39.22.59s0,.13.07.2.17.41.27.62l.08.18q.15.35.33.69A1,1,0,0,0,73,340c.13.26.27.52.42.79l0,.06c.32.58.68,1.19,1.08,1.8s.81,1.24,1.26,1.87l.12.16q.27.39.57.78c0,.08.11.15.17.23l.55.72.21.27.55.7.23.29.56.69.25.3.58.68.27.32q.29.35.6.69l.26.3.65.73.24.27c.26.29.52.58.79.86l.12.14.93,1,.24.26c.24.24.47.49.71.74l.38.4.57.59.46.46.51.52.48.49.5.5.5.49.49.49.52.51.48.46.52.51.49.47.52.49.51.48.5.47.57.54.43.4.84.78.15.14h0l.51.47v15.4l-.7-.1.7,3.36,1.22.16-.07,1.58-.22,5-.59,0s-.2.2-.54.51c0-.11-.49-1.32-1.21-1.62a.86.86,0,0,0-.7,0c-.25.12-.37.27-.36.46s.41.57.85.81a2.24,2.24,0,0,0-1.22.13.56.56,0,0,0-.29.37.52.52,0,0,0,.13.58.76.76,0,0,0,.48.13,5.77,5.77,0,0,0,2-.56A15.08,15.08,0,0,1,88,393.9c-3.24.77-1.43,2.72,2.2,2.72h9c2.58,0,1-2.2.86-6.79,0-.1-.33-.16-.81-.19l.59-5h0l.1-.9,1.24.16.77-3.06-.64-.09q.93-4.47,1.74-8.69l.93.79.39.33.11.1,1,.8,2.31,1.9.15.13.22.18c1.23,1,2.19,1.78,2.81,2.27l-.56.61,2.82,1.61.55-.58,1.61,1.34,3.77,3.14-.34.5s0,.28.08.74a3,3,0,0,0-2,0,.79.79,0,0,0-.41.57.49.49,0,0,0,.15.56c.23.16.7,0,1.15-.18a2.19,2.19,0,0,0-.63,1.05.55.55,0,0,0,.11.45.58.58,0,0,0,.45.26h.09c.58-.14,1-1.52,1.15-2.2a15.17,15.17,0,0,1-.81,6.55c-1.37,3,1.29,2.78,3.49-.1l5.45-7.14c1.57-2.05-1.16-2.1-4.87-4.8-.08-.07-.32.15-.63.5l-3.64-3.51-1-1,.69-.73L116.05,373l-.73.79c-1.45-1.5-4.93-5.13-9-9.58l-1.46-1.58c4.5-26,5.4-43.77,5-55.6l3.95-1.12A176.78,176.78,0,0,1,112.2,267c2.49,3.71,10.69,15.3,15.51,14.17,5.73-1.34,3.06-24.66,3.06-24.66ZM91.48,390.78s-.09-.08,0-.29a.31.31,0,0,1,.15-.19,1.31,1.31,0,0,1,.64-.12,6.59,6.59,0,0,1,1.29.17C92.73,390.69,91.74,391,91.48,390.78Zm.64-1.69c0-.07.12-.14.19-.18a.61.61,0,0,1,.25-.06.59.59,0,0,1,.22,0,2.29,2.29,0,0,1,.93,1.17C92.91,389.76,92.13,389.34,92.12,389.09Zm24.66-2.33c-.07,0,0-.18,0-.26a.59.59,0,0,1,.27-.39,1.39,1.39,0,0,1,.66-.13,4,4,0,0,1,.84.1C117.79,386.54,117,386.9,116.78,386.76Zm1,1.53s-.11,0-.25-.15a.31.31,0,0,1-.06-.24c.06-.44.74-1.1,1.22-1.5C118.42,387.24,118.05,388.21,117.73,388.29ZM87,341.5l-.42-.63-.29-.45-.43-.71-.29-.5c-.06-.12-.13-.24-.18-.35s-.23-.44-.32-.65A1.54,1.54,0,0,0,85,338c-.07-.19-.13-.36-.18-.53a1.33,1.33,0,0,1,0-.19,2.14,2.14,0,0,1-.07-.47.08.08,0,0,1,0,0,12.78,12.78,0,0,1,.58-3.12h0a139.4,139.4,0,0,1,6-15.53c1.32-3,2.59-5.77,3.6-7.93l-.61,31.18v9.41L93,349.27c-2.3-2.77-4.33-5.35-5.81-7.49C87.15,341.68,87.08,341.59,87,341.5Z" style="fill:#2D2E35"></path><path d="M129.8,256.63l-.27-2.73c.31-.29,2.09-4,2-5s-3.38-2.58-4-2.37-2,4.73-2,5.52,1.22,2,1.22,2l.12,3-.51.06-.19,16.44s-9.75-17.39-12.47-18.58l-5.16-2.4s-.2.26-.52.72c-1.16-.26-2.32-.5-3.49-.7-.56-.1-1.13-.18-1.69-.27a4.9,4.9,0,0,1-.47-1.05,17.63,17.63,0,0,0,3.37-.19h0s6.61-.66,7.89-5-2.36-10.95-2.36-10.95,2-3.65-3.41-6.52a3.39,3.39,0,0,0-2.22-.38,10.29,10.29,0,0,0-8.59-2.56c-5.88,1-4.86,11.76-4.85,11.92-1.54,1.22-5.61,5.11-1.9,9.88l.15-.6c1.29,1.65,4,3,7,3.69a3.69,3.69,0,0,1-.41,1.15l-1.26-.07c-1.85,0-3.82.08-5.37.18H86.15v-.27c-2.18.22-12.65,11.4-12.65,11.4L78,250.38l-.35-.11.87-2.51a13.35,13.35,0,0,0,1.87-1.63c.1-.13,0-.46-.1-.89a26.66,26.66,0,0,0,2-2.29l1.43.8a3.05,3.05,0,0,0,.42-.42,4.1,4.1,0,0,0,3.54-6.3,2.49,2.49,0,0,0,.11-.56L80,232.1a2.46,2.46,0,0,1,0,.26,18.18,18.18,0,0,1-4.84-5.9c0-.48,0-.82-.27-.94-.8-.45-3.08,2.1-5.09,5.69s-3,6.86-2.18,7.31c.22.12.54,0,.94-.25a18.22,18.22,0,0,1,7.53,1l-.11.1,3.72,2.08c-.27.24-.55.46-.84.68-.33-.52-.6-.88-.7-.88a12.33,12.33,0,0,0-3.25,1.81c-.36.43,1.53,3.92,1.53,3.92l-1.41,2.35-.51-.18s-8.81,14.06-6.88,19.22c1.56,4.16,13.11-2.73,17.51-5.55-.3,9,.13,19.19.13,19.19l-1.57,15.3c-.81,2-1.89,4.7-3.06,7.75-3.55,9.18-8,21.63-9.09,28.78a4.48,4.48,0,0,0,0,.64v0c0,.21,0,.42,0,.64,0,0,0,.09,0,.13s0,.37.07.57l0,.16a5.59,5.59,0,0,0,.12.56,1.05,1.05,0,0,0,0,.19c.05.19.1.38.16.57l.06.2c.07.19.14.39.22.59s0,.13.07.2.17.41.27.62l.08.18q.15.35.33.69A1,1,0,0,0,73,340c.13.26.27.52.42.79l0,.06c.32.58.68,1.19,1.08,1.8s.81,1.24,1.26,1.87l.12.16q.27.39.57.78c0,.08.11.15.17.23l.55.72.21.27.55.7.23.29.56.69.25.3.58.68.27.32q.29.35.6.69l.26.3.65.73.24.27c.26.29.52.58.79.86l.12.14.93,1,.24.26c.24.24.47.49.71.74l.38.4.57.59.46.46.51.52.48.49.5.5.5.49.49.49.52.51.48.46.52.51.49.47.52.49.51.48.5.47.57.54.43.4.84.78.15.14h0l.51.47v15.4l-.7-.1.7,3.36,1.22.16-.07,1.58-.22,5-.59,0s-.2.2-.54.51c0-.11-.49-1.32-1.21-1.62a.86.86,0,0,0-.7,0c-.25.12-.37.27-.36.46s.41.57.85.81a2.24,2.24,0,0,0-1.22.13.56.56,0,0,0-.29.37.52.52,0,0,0,.13.58.76.76,0,0,0,.48.13,5.77,5.77,0,0,0,2-.56A15.08,15.08,0,0,1,88,393.9c-3.24.77-1.43,2.72,2.2,2.72h9c2.58,0,1-2.2.86-6.79,0-.1-.33-.16-.81-.19l.59-5h0l.1-.9,1.24.16.77-3.06-.64-.09q.93-4.47,1.74-8.69l.93.79.39.33.11.1,1,.8,2.31,1.9.15.13.22.18c1.23,1,2.19,1.78,2.81,2.27l-.56.61,2.82,1.61.55-.58,1.61,1.34,3.77,3.14-.34.5s0,.28.08.74a3,3,0,0,0-2,0,.79.79,0,0,0-.41.57.49.49,0,0,0,.15.56c.23.16.7,0,1.15-.18a2.19,2.19,0,0,0-.63,1.05.55.55,0,0,0,.11.45.58.58,0,0,0,.45.26h.09c.58-.14,1-1.52,1.15-2.2a15.17,15.17,0,0,1-.81,6.55c-1.37,3,1.29,2.78,3.49-.1l5.45-7.14c1.57-2.05-1.16-2.1-4.87-4.8-.08-.07-.32.15-.63.5l-3.64-3.51-1-1,.69-.73L116.05,373l-.73.79c-1.45-1.5-4.93-5.13-9-9.58l-1.46-1.58c4.5-26,5.4-43.77,5-55.6l3.95-1.12A176.78,176.78,0,0,1,112.2,267c2.49,3.71,10.69,15.3,15.51,14.17,5.73-1.34,3.06-24.66,3.06-24.66ZM91.48,390.78s-.09-.08,0-.29a.31.31,0,0,1,.15-.19,1.31,1.31,0,0,1,.64-.12,6.59,6.59,0,0,1,1.29.17C92.73,390.69,91.74,391,91.48,390.78Zm.64-1.69c0-.07.12-.14.19-.18a.61.61,0,0,1,.25-.06.59.59,0,0,1,.22,0,2.29,2.29,0,0,1,.93,1.17C92.91,389.76,92.13,389.34,92.12,389.09Zm24.66-2.33c-.07,0,0-.18,0-.26a.59.59,0,0,1,.27-.39,1.39,1.39,0,0,1,.66-.13,4,4,0,0,1,.84.1C117.79,386.54,117,386.9,116.78,386.76Zm1,1.53s-.11,0-.25-.15a.31.31,0,0,1-.06-.24c.06-.44.74-1.1,1.22-1.5C118.42,387.24,118.05,388.21,117.73,388.29ZM87,341.5l-.42-.63-.29-.45-.43-.71-.29-.5c-.06-.12-.13-.24-.18-.35s-.23-.44-.32-.65A1.54,1.54,0,0,0,85,338c-.07-.19-.13-.36-.18-.53a1.33,1.33,0,0,1,0-.19,2.14,2.14,0,0,1-.07-.47.08.08,0,0,1,0,0,12.78,12.78,0,0,1,.58-3.12h0a139.4,139.4,0,0,1,6-15.53c1.32-3,2.59-5.77,3.6-7.93l-.61,31.18v9.41L93,349.27c-2.3-2.77-4.33-5.35-5.81-7.49C87.15,341.68,87.08,341.59,87,341.5Z" style="fill:#fff;opacity:0.7000000000000001;isolation:isolate"></path><path d="M252.45,290.54c.13.35,5.16,1.17,5.56.55a13.09,13.09,0,0,0,.92-2.39l1.64-1.34.42.84s8.8-7.28,13.07-11.34c3.07-2.93,6.42-8.78,8.06-11.84v10.53l7.57,2c0,.59.08,1.19.12,1.81h0v2.95h.06l0,.09h0s-9.43,16.46,1.42,79.15l-1.5,1.63c-4.26,4.6-7.86,8.35-9.36,9.91l-.75-.82-1.58,3.23.71.75-1.07,1-3.77,3.63c-.32-.36-.56-.58-.65-.52-3.83,2.79-6.65,2.85-5,5s3.36,4.39,5.63,7.37,5,3.25,3.61.11a15.59,15.59,0,0,1-.83-6.77c.17.71.58,2.13,1.18,2.27h.1a.57.57,0,0,0,.45-.27.54.54,0,0,0,.12-.46,2.31,2.31,0,0,0-.65-1.09c.47.22.95.35,1.19.19s.21-.3.15-.58a.83.83,0,0,0-.42-.59,3.15,3.15,0,0,0-2.09,0c.05-.47.09-.76.09-.76l-.35-.52,3.89-3.24,1.66-1.39.57.61,2.91-1.67-.57-.63c.63-.5,1.62-1.3,2.88-2.33l.26-.22.12-.09,2.4-2,1.07-.89,0,0c.14-.13.29-.25.44-.37l.94-.8q.84,4.35,1.8,9l-.67.1.79,3.16,1.29-.17.11.93h0l.61,5.19c-.5,0-.83.1-.83.21-.11,4.74-1.78,7,.89,7h9.28c3.75,0,5.63-2,2.27-2.81a15.33,15.33,0,0,1-5.88-3.44,6.06,6.06,0,0,0,2,.58.76.76,0,0,0,.5-.14.53.53,0,0,0,.13-.6.59.59,0,0,0-.3-.38,2.24,2.24,0,0,0-1.25-.13c.45-.25.85-.54.87-.84s-.11-.35-.37-.47a.89.89,0,0,0-.73,0c-.74.31-1.2,1.55-1.25,1.67-.35-.32-.55-.53-.55-.53l-.61,0-.23-5.18-.07-1.63,1.26-.17.73-3.47-.73.1V363.2l.21-.19.33-.3,1-.95.45-.41.59-.56.51-.48.52-.49.54-.52.51-.48.54-.53.49-.47.54-.54.49-.48.53-.53.51-.5.5-.51.54-.55.46-.47c.2-.2.4-.4.59-.61l.4-.41.72-.76.26-.27,1-1,.1-.11.84-.92.24-.27c.23-.26.46-.51.68-.77l.27-.3.63-.73.26-.31.6-.71.26-.31.58-.71.24-.31q.3-.36.57-.72l.22-.27.56-.75.18-.24c.21-.27.4-.54.59-.81l.12-.15c.58-.82,1.11-1.63,1.6-2.41.29-.47.57-.94.82-1.39l0-.07c.15-.27.29-.54.43-.81l.07-.15c.12-.24.23-.48.34-.71,0-.06.05-.12.08-.19s.19-.43.28-.65c0-.06.05-.13.07-.2s.16-.41.22-.61.05-.14.07-.2.12-.4.17-.59a1.46,1.46,0,0,0,.05-.2c.05-.19.09-.39.12-.58s0-.11,0-.17,0-.4.07-.59,0-.08,0-.12c0-.23,0-.45,0-.67v0c0-.22,0-.45-.06-.66-1.12-7.43-5.77-20.4-9.45-29.91-2.37-6.15-4.34-10.84-4.67-11.64a81.86,81.86,0,0,0-1.53-9.5h0v-3.5h0q.21-3.64.31-6.74a49.49,49.49,0,0,1,1,6.74l2.85-1.72s-1-10.56-2.44-19.44c1-.72,2.55-1.84,4.32-3.21,4.54-3.51,10.55-8.59,12.7-12.43,3.62-6.47.9-27.56.9-27.56h-.05l.08-1.73s3.61-1.93,3.54-2.51a12.59,12.59,0,0,0-1.77-3.41c-.31-.2-4.83,2.14-4.79,2.87a13.9,13.9,0,0,0,.69,2.47l-.62,2.42-1.59.06s.89,18.34-1.06,21-10.22,10-14.66,11.79h0l-5.26.61-.09-4.66-2.3.66.49,1.34a17,17,0,0,1-1.9.77,13.43,13.43,0,0,0-1.24-2c5.14-.84,5.31-5.48,3.48-11.34a6.13,6.13,0,0,0,.25-2.55l-.1-.32-.86.23c-.09-.28-.2-.56-.33-.86,0,0,3.56-8.83-2.78-10.1-7.35-1.46-10.84,7.33-10.84,7.33s-2.68,0-2.07,5.72c.53,5,1.87,7.56,4.83,9.13a10.72,10.72,0,0,0-1.83,3.17l-3.09-.27,1.1,5.4-4.81,1.26h0c-2.63,1-10.91,18.64-12.59,21.62s-10.87,12.53-10.87,12.53l.55,1.12-1.8,2.22s-4.06-.59-4.35-.09A13,13,0,0,0,252.45,290.54Zm50.45,99.6a7.11,7.11,0,0,1,1.33-.17,1.44,1.44,0,0,1,.67.12.32.32,0,0,1,.16.2c.05.22,0,.27,0,.29C304.76,390.8,303.73,390.49,302.9,390.14Zm-.19-.29a2.46,2.46,0,0,1,1-1.21.59.59,0,0,1,.22-.05.48.48,0,0,1,.26.07c.08,0,.21.11.2.18C304.35,389.1,303.55,389.53,302.71,389.85Zm-25.62-4.12a4.19,4.19,0,0,1,.86-.11,1.34,1.34,0,0,1,.68.15.52.52,0,0,1,.28.39c0,.08,0,.23,0,.27S277.84,386.2,277.09,385.73Zm-.12.33c.49.41,1.19,1.09,1.25,1.55a.34.34,0,0,1-.06.25c-.14.18-.23.16-.26.15C277.57,387.93,277.19,386.93,277,386.06ZM309.43,340c-1.53,2.21-3.62,4.87-6,7.73-.43.52-.87,1.05-1.32,1.57v-9.72l-.63-32.21c1,2.23,2.36,5.11,3.71,8.19,2.28,5.2,4.66,10.93,5.92,15h0c.11.36.22.71.31,1.05v0c.09.33.17.65.25,1h0q.07.34.15.66v0a8,8,0,0,1,.2,1.58v0a2.4,2.4,0,0,1-.07.5l-.06.19c-.05.17-.11.35-.19.55a1.54,1.54,0,0,1-.08.19c-.09.21-.2.44-.32.68l-.19.35-.31.53c-.13.23-.28.47-.44.72s-.19.31-.3.48l-.43.64Z" style="fill:#2D2E35"></path><path d="M252.45,290.54c.13.35,5.16,1.17,5.56.55a13.09,13.09,0,0,0,.92-2.39l1.64-1.34.42.84s8.8-7.28,13.07-11.34c3.07-2.93,6.42-8.78,8.06-11.84v10.53l7.57,2c0,.59.08,1.19.12,1.81h0v2.95h.06l0,.09h0s-9.43,16.46,1.42,79.15l-1.5,1.63c-4.26,4.6-7.86,8.35-9.36,9.91l-.75-.82-1.58,3.23.71.75-1.07,1-3.77,3.63c-.32-.36-.56-.58-.65-.52-3.83,2.79-6.65,2.85-5,5s3.36,4.39,5.63,7.37,5,3.25,3.61.11a15.59,15.59,0,0,1-.83-6.77c.17.71.58,2.13,1.18,2.27h.1a.57.57,0,0,0,.45-.27.54.54,0,0,0,.12-.46,2.31,2.31,0,0,0-.65-1.09c.47.22.95.35,1.19.19s.21-.3.15-.58a.83.83,0,0,0-.42-.59,3.15,3.15,0,0,0-2.09,0c.05-.47.09-.76.09-.76l-.35-.52,3.89-3.24,1.66-1.39.57.61,2.91-1.67-.57-.63c.63-.5,1.62-1.3,2.88-2.33l.26-.22.12-.09,2.4-2,1.07-.89,0,0c.14-.13.29-.25.44-.37l.94-.8q.84,4.35,1.8,9l-.67.1.79,3.16,1.29-.17.11.93h0l.61,5.19c-.5,0-.83.1-.83.21-.11,4.74-1.78,7,.89,7h9.28c3.75,0,5.63-2,2.27-2.81a15.33,15.33,0,0,1-5.88-3.44,6.06,6.06,0,0,0,2,.58.76.76,0,0,0,.5-.14.53.53,0,0,0,.13-.6.59.59,0,0,0-.3-.38,2.24,2.24,0,0,0-1.25-.13c.45-.25.85-.54.87-.84s-.11-.35-.37-.47a.89.89,0,0,0-.73,0c-.74.31-1.2,1.55-1.25,1.67-.35-.32-.55-.53-.55-.53l-.61,0-.23-5.18-.07-1.63,1.26-.17.73-3.47-.73.1V363.2l.21-.19.33-.3,1-.95.45-.41.59-.56.51-.48.52-.49.54-.52.51-.48.54-.53.49-.47.54-.54.49-.48.53-.53.51-.5.5-.51.54-.55.46-.47c.2-.2.4-.4.59-.61l.4-.41.72-.76.26-.27,1-1,.1-.11.84-.92.24-.27c.23-.26.46-.51.68-.77l.27-.3.63-.73.26-.31.6-.71.26-.31.58-.71.24-.31q.3-.36.57-.72l.22-.27.56-.75.18-.24c.21-.27.4-.54.59-.81l.12-.15c.58-.82,1.11-1.63,1.6-2.41.29-.47.57-.94.82-1.39l0-.07c.15-.27.29-.54.43-.81l.07-.15c.12-.24.23-.48.34-.71,0-.06.05-.12.08-.19s.19-.43.28-.65c0-.06.05-.13.07-.2s.16-.41.22-.61.05-.14.07-.2.12-.4.17-.59a1.46,1.46,0,0,0,.05-.2c.05-.19.09-.39.12-.58s0-.11,0-.17,0-.4.07-.59,0-.08,0-.12c0-.23,0-.45,0-.67v0c0-.22,0-.45-.06-.66-1.12-7.43-5.77-20.4-9.45-29.91-2.37-6.15-4.34-10.84-4.67-11.64a81.86,81.86,0,0,0-1.53-9.5h0v-3.5h0q.21-3.64.31-6.74a49.49,49.49,0,0,1,1,6.74l2.85-1.72s-1-10.56-2.44-19.44c1-.72,2.55-1.84,4.32-3.21,4.54-3.51,10.55-8.59,12.7-12.43,3.62-6.47.9-27.56.9-27.56h-.05l.08-1.73s3.61-1.93,3.54-2.51a12.59,12.59,0,0,0-1.77-3.41c-.31-.2-4.83,2.14-4.79,2.87a13.9,13.9,0,0,0,.69,2.47l-.62,2.42-1.59.06s.89,18.34-1.06,21-10.22,10-14.66,11.79h0l-5.26.61-.09-4.66-2.3.66.49,1.34a17,17,0,0,1-1.9.77,13.43,13.43,0,0,0-1.24-2c5.14-.84,5.31-5.48,3.48-11.34a6.13,6.13,0,0,0,.25-2.55l-.1-.32-.86.23c-.09-.28-.2-.56-.33-.86,0,0,3.56-8.83-2.78-10.1-7.35-1.46-10.84,7.33-10.84,7.33s-2.68,0-2.07,5.72c.53,5,1.87,7.56,4.83,9.13a10.72,10.72,0,0,0-1.83,3.17l-3.09-.27,1.1,5.4-4.81,1.26h0c-2.63,1-10.91,18.64-12.59,21.62s-10.87,12.53-10.87,12.53l.55,1.12-1.8,2.22s-4.06-.59-4.35-.09A13,13,0,0,0,252.45,290.54Zm50.45,99.6a7.11,7.11,0,0,1,1.33-.17,1.44,1.44,0,0,1,.67.12.32.32,0,0,1,.16.2c.05.22,0,.27,0,.29C304.76,390.8,303.73,390.49,302.9,390.14Zm-.19-.29a2.46,2.46,0,0,1,1-1.21.59.59,0,0,1,.22-.05.48.48,0,0,1,.26.07c.08,0,.21.11.2.18C304.35,389.1,303.55,389.53,302.71,389.85Zm-25.62-4.12a4.19,4.19,0,0,1,.86-.11,1.34,1.34,0,0,1,.68.15.52.52,0,0,1,.28.39c0,.08,0,.23,0,.27S277.84,386.2,277.09,385.73Zm-.12.33c.49.41,1.19,1.09,1.25,1.55a.34.34,0,0,1-.06.25c-.14.18-.23.16-.26.15C277.57,387.93,277.19,386.93,277,386.06ZM309.43,340c-1.53,2.21-3.62,4.87-6,7.73-.43.52-.87,1.05-1.32,1.57v-9.72l-.63-32.21c1,2.23,2.36,5.11,3.71,8.19,2.28,5.2,4.66,10.93,5.92,15h0c.11.36.22.71.31,1.05v0c.09.33.17.65.25,1h0q.07.34.15.66v0a8,8,0,0,1,.2,1.58v0a2.4,2.4,0,0,1-.07.5l-.06.19c-.05.17-.11.35-.19.55a1.54,1.54,0,0,1-.08.19c-.09.21-.2.44-.32.68l-.19.35-.31.53c-.13.23-.28.47-.44.72s-.19.31-.3.48l-.43.64Z" style="fill:#fff;opacity:0.7000000000000001;isolation:isolate"></path></g><g id="freepik--character-3--inject-32"><path d="M361.32,156.46l-1.52-7.74s-.79.05-1.58-1.12-1.67-5.62-1.17-6.1,5-1.16,5-1.16l2.19,6.27-1.41,1.07,2.07,8.26Z" style="fill:#e4897b"></path><path d="M345.43,198.3s15.9-15.93,16.57-18-2.1-28.22-2.1-28.22l5.12-1.38s5.17,28.61,5.17,32.31-19.3,26.07-22.9,29Z" style="fill:#2D2E35"></path><path d="M345.65,318.2c4.29,9.72,9,18.31,11.84,23.4,1.73,3,2.83,4.84,2.83,4.84a284.85,284.85,0,0,0,10.45,30.65c1.58,4,3.16,7.73,4.67,11.22,5.59,12.95,10.23,22.07,10.23,22.07l4.93-2.08-9.32-32.93-4.94-17.45-6.73-23.75-1.2-4.13-5.25-18-7.75-26.58-20-3.08C335.83,293.15,340.48,306.5,345.65,318.2Z" style="fill:#e4897b"></path><path d="M401.59,413a8.27,8.27,0,0,0-3-.26h0s-3.79-1.47-8.51-8.82l-3.86.6a3.24,3.24,0,0,0-2.61,2.61,1.7,1.7,0,0,0,0,.55,21.18,21.18,0,0,0,.75,2.73,76.34,76.34,0,0,0,3.73,8.7l.62-.27-2.12-5.56c-.71-1.89,1.65-.34,2.92,1.48s3.06,3.56,7.16,1.89C401.41,414.71,403.29,413.67,401.59,413Z" style="fill:#2e353a"></path><path d="M388.25,401.38s2.34,3.27,5.23,6.78a18,18,0,0,0,5.1,4.61s-2.81,1.86-5,.38-7-7.68-10-6a7.67,7.67,0,0,1,.26-1.83C384.12,404.41,388.25,401.38,388.25,401.38Z" style="fill:#e4897b"></path><path d="M318.18,169.6s-4.61,1.7-6.07,8,2.42,20,3,26.4-6.44,19.53,11.93,20.72,21.05-49,12.54-52.49S318.18,169.6,318.18,169.6Z" style="fill:#263238"></path><path d="M344.24,199.57h0a.25.25,0,0,1-.21-.29c1.61-10.66,0-23.48-3.17-25.88a1.81,1.81,0,0,0-2-.19.25.25,0,0,1-.21-.45,2.26,2.26,0,0,1,2.48.24c3.73,2.77,4.87,16.45,3.37,26.36A.25.25,0,0,1,344.24,199.57Z" style="fill:#263238"></path><path d="M314.75,313.24c1.54,10.51,3.73,20,5.16,25.71.86,3.4,1.44,5.42,1.44,5.42a286.46,286.46,0,0,0,1.9,32.33c.47,4.22,1,8.28,1.51,12.06,1.93,14,4,24,4,24l5.31-.69-.2-34.23-.11-18.14L333.58,335l-.06-4.3L333.26,312l-.37-27.68L314.43,276C312,286.48,312.88,300.58,314.75,313.24Z" style="fill:#e4897b"></path><path d="M364.13,313.41c-4.72,3.26-11.08,5.22-15.44,6.27-1-3.44-2.31-7.31-3.66-11.07-3.48-9.7-7.3-18.81-7.3-18.81l12.45-21.08s5.06,14,9.57,28.84C361.4,303,362.93,308.45,364.13,313.41Z" style="opacity:0.2;isolation:isolate"></path><path d="M333.42,323.56a169.59,169.59,0,0,1-17.15-1.23c-.54-2.89-1.06-5.94-1.53-9.09-1.86-12.66-2.78-26.76-.31-37.28l18.46,8.31.37,27.68Z" style="opacity:0.2;isolation:isolate"></path><path d="M365,311.58c-11.54,6.78-45.5,9.66-45.5,9.66L314,305.63l.6,15.44h-1.64s-12.41-42,4.08-69.5l29.52-2.28,3.23,15.21S358.08,286.3,365,311.58Z" style="fill:#263238"></path><path d="M343.37,419.56a8.43,8.43,0,0,0-2.83-1.06h0s-3.26-2.43-5.85-10.77l-3.88-.44a3.2,3.2,0,0,0-3.21,1.81,1.59,1.59,0,0,0-.17.52,22.28,22.28,0,0,0,0,2.83,79,79,0,0,0,1.28,9.39l.68-.1-.57-5.92c-.18-2,1.68.11,2.42,2.2s2,4.25,6.39,3.73C342.75,421.13,344.84,420.63,343.37,419.56Z" style="fill:#2e353a"></path><path d="M333.62,404.77s1.38,3.78,3.23,7.93a18.15,18.15,0,0,0,3.69,5.8s-3.21,1-4.94-1-4.68-9.27-8-8.43a7.5,7.5,0,0,1,.74-1.69C328.83,406.59,333.62,404.77,333.62,404.77Z" style="fill:#e4897b"></path><polygon points="316.74 248.55 316.57 253.01 347.09 251.82 347.29 246.56 316.74 248.55" style="fill:#263238"></polygon><polygon points="316.74 248.55 316.57 253.01 347.09 251.82 347.29 246.56 316.74 248.55" style="fill:#fff;opacity:0.2;isolation:isolate"></polygon><rect x="325.57" y="247.08" width="1.51" height="7.7" transform="translate(-3.32 4.38) rotate(-0.77)" style="fill:#263238"></rect><rect x="333.65" y="247.25" width="6.68" height="5.07" transform="translate(-12.44 17.73) rotate(-2.96)" style="fill:#fff"></rect><rect x="344.23" y="245.74" width="1.51" height="7.7" transform="translate(-3.29 4.61) rotate(-0.76)" style="fill:#263238"></rect><path d="M316.49,249.21s-1.82-25.25-8-39.68c0,0,12.75-6.48,37-11.23,0,0,6.92,15.89,1.48,49.32Z" style="fill:#2D2E35"></path><path d="M316.49,249.21s-1.82-25.25-8-39.68c0,0,12.75-6.48,37-11.23,0,0,6.92,15.89,1.48,49.32Z" style="fill:#fff;opacity:0.6000000000000001;isolation:isolate"></path><path d="M338.12,224.2a.82.82,0,0,1-1.63,0,.82.82,0,1,1,1.63,0Z" style="fill:#263238"></path><path d="M338.93,234a.81.81,0,1,1-.81-.82A.81.81,0,0,1,338.93,234Z" style="fill:#263238"></path><path d="M338.93,243.3a.81.81,0,1,1-.81-.81A.82.82,0,0,1,338.93,243.3Z" style="fill:#263238"></path><path d="M320.87,214s-5.45-8.91,6.48-12,15.56,4.09,15.56,4.09l-6-1-.74,14.19a22.76,22.76,0,0,0-12.55-10.44Z" style="fill:#2D2E35"></path><path d="M334.75,212A83.3,83.3,0,0,1,322.47,205c3-2.82,2.45-7,1.69-9.59a15.11,15.11,0,0,0-.91-2.4l8.83,1.65a25.55,25.55,0,0,0-.34,3.72,10.87,10.87,0,0,0,.25,2.73c.6,2.64,2.1,2.67,2.1,2.67C335.64,206.63,334.75,212,334.75,212Z" style="fill:#e4897b"></path><path d="M331.74,198.33a10.87,10.87,0,0,0,.25,2.73c-3.51-.46-6.16-3.27-7.83-5.7a15.11,15.11,0,0,0-.91-2.4l8.83,1.65A25.55,25.55,0,0,0,331.74,198.33Z" style="opacity:0.2;isolation:isolate"></path><path d="M330,169.75c9.51,0,10.31,4.6,10.86,12.52.68,9.89-1.53,16.92-11.13,14.78C316.67,194.15,317.23,169.75,330,169.75Z" style="fill:#e4897b"></path><path d="M335.88,181.83a16.14,16.14,0,0,0,2.23,3.19,2.11,2.11,0,0,1-2,.86Z" style="fill:#de5753"></path><path d="M331.18,181.19c0,.63-.32,1.15-.74,1.16s-.77-.5-.79-1.13.32-1.15.74-1.16S331.17,180.56,331.18,181.19Z" style="fill:#263238"></path><path d="M330.22,180.09l1.36-.56S330.92,180.7,330.22,180.09Z" style="fill:#263238"></path><path d="M339,180.89c0,.63-.31,1.15-.73,1.16s-.78-.5-.79-1.13.32-1.15.74-1.16S339,180.26,339,180.89Z" style="fill:#263238"></path><path d="M338.06,179.8l1.36-.57S338.76,180.4,338.06,179.8Z" style="fill:#263238"></path><path d="M332.23,178a4.4,4.4,0,0,1-3.19-1.74.35.35,0,1,1,.56-.42,3.69,3.69,0,0,0,2.85,1.44.35.35,0,0,1,.38.32.34.34,0,0,1-.32.38Z" style="fill:#263238"></path><path d="M336.84,178a.34.34,0,0,1-.33-.26.35.35,0,0,1,.23-.44,3.25,3.25,0,0,0,2.21-1.74.35.35,0,1,1,.66.24A3.89,3.89,0,0,1,337,178Z" style="fill:#263238"></path><path d="M321.73,183.14s3.6-6.3,3.07-11.18c0,0,5.42-5.59,12.72-.06,0,0,3.05,5.25,3.24,9.33,0,0,1.52-13.72-11.69-14s-13.2,19-6.39,24.76C322.68,191.94,319.5,187.09,321.73,183.14Z" style="fill:#263238"></path><path d="M323,184.77a3.37,3.37,0,0,0-3.62-3.09c-2.39.25-3.53,5.14,2.39,6.33C322.6,188.18,323.08,187.35,323,184.77Z" style="fill:#e4897b"></path><path d="M324.8,172s8.78-3.9,14.59,1.25c0,0,2.28-6.77-5.5-9.09s-15.71,5.48-15.71,5.48Z" style="fill:#263238"></path><path d="M324.8,172s-5.13,5.06-4.38,15.13-.24,16.44-2.24,22.74,3.24,8.18,3.24,8.18-6,1.48-7.2-4.91c-.81-4.19,1.11-13.27.15-24.09S317.26,170.55,324.8,172Z" style="fill:#263238"></path><path d="M334.14,191.86l.66.1,2.77-3.29a5.81,5.81,0,0,0-.55-.35c-1.15-.7-3.8-2.12-5.31-1.27a3.11,3.11,0,0,0-.47.36,3,3,0,0,0-1,1.82C330.13,190.26,331,191.37,334.14,191.86Z" style="fill:#263238"></path><path d="M331.24,187.41l5.39,1.26.39-.35c-1.15-.7-3.8-2.12-5.31-1.27A3.11,3.11,0,0,0,331.24,187.41Z" style="fill:#fff"></path><path d="M334.14,191.86c.05-1.77-2.4-2.44-3.92-2.63C330.13,190.26,331,191.37,334.14,191.86Z" style="fill:#de5753"></path><path d="M308.45,209.53c-4.33,1.27-18,27.87-18,27.87l5.2,3.07s13.48-13.47,17-17.32a46.48,46.48,0,0,0-.86-9.08C310.85,209.62,308.45,209.53,308.45,209.53Z" style="fill:#2D2E35"></path><polygon points="338.69 285.27 341.23 230.07 282.33 229.9 282.39 285.11 338.69 285.27" style="fill:#2D2E35"></polygon><polygon points="338.69 285.27 341.23 230.07 282.33 229.9 282.39 285.11 338.69 285.27" style="fill:#fff;opacity:0.30000000000000004;isolation:isolate"></polygon><path d="M297.45,244.31l1.53,0L297.29,254l-1.38,0-.74-5.32-.87,5.29-1.39,0-1.43-9.67,1.52,0,.67,5.18.79-5.15,1.53,0,.66,5.17Z" style="fill:#fff"></path><path d="M302.28,244.28a2.32,2.32,0,0,1,2.27,2.35l-.1,5.26a2.22,2.22,0,0,1-.71,1.63,2.24,2.24,0,0,1-1.64.64,2.21,2.21,0,0,1-1.62-.71,2.24,2.24,0,0,1-.64-1.64l.1-5.27a2.3,2.3,0,0,1,2.34-2.26Zm.75,2.29a.76.76,0,0,0-.23-.59.8.8,0,0,0-.58-.26.85.85,0,0,0-.6.24.8.8,0,0,0-.26.58l-.1,5.28a.81.81,0,0,0,.24.59.83.83,0,0,0,.59.26.81.81,0,0,0,.59-.24.74.74,0,0,0,.25-.58Z" style="fill:#fff"></path><path d="M307.14,254.14l-1.45,0,.18-9.65,2.08,0,1.23,7,1.43-6.91,2,0-.18,9.65-1.45,0,.11-6.06-1.37,6-1.17,0-1.3-6.07Z" style="fill:#fff"></path><path d="M313.73,254.26l.18-9.65,4.14.08,0,1.46-2.69-.05,0,2.63,2,0,0,1.46-2,0,0,2.64,2.68,0,0,1.46Z" style="fill:#fff"></path><path d="M320.69,244.74l1.81,6.52.12-6.49,1.45,0-.18,9.65-1.56,0-1.89-6.22-.11,6.18-1.45,0,.17-9.65Z" style="fill:#fff"></path><path d="M325.1,243.29l1.35,0-.27,2.2-.9,0Z" style="fill:#fff"></path><path d="M332.09,252.2a2.68,2.68,0,0,1-.55,1.71,1.84,1.84,0,0,1-1,.67,2.51,2.51,0,0,1-.81.09,2.28,2.28,0,0,1-1.4-.45,2.35,2.35,0,0,1-.73-.95,3.89,3.89,0,0,1-.29-1.38l1.39-.07a2.12,2.12,0,0,0,.42,1.23.71.71,0,0,0,.59.28.88.88,0,0,0,.77-.45,1.14,1.14,0,0,0,.16-.64,1.73,1.73,0,0,0-.52-1.2l-1.27-1.25a5.23,5.23,0,0,1-1-1.28,2.85,2.85,0,0,1-.3-1.36,2.37,2.37,0,0,1,.92-2,2.23,2.23,0,0,1,1.36-.38,2.47,2.47,0,0,1,1.33.37,2,2,0,0,1,.68.77,2.85,2.85,0,0,1,.3,1.12l-1.4.23a1.63,1.63,0,0,0-.32-.93.7.7,0,0,0-.57-.25.67.67,0,0,0-.62.34,1.52,1.52,0,0,0-.18.71,2.06,2.06,0,0,0,.55,1.35,4.62,4.62,0,0,0,.63.63c.33.29.55.49.66.61a5,5,0,0,1,.81,1.07c.09.17.16.32.22.46A2.7,2.7,0,0,1,332.09,252.2Z" style="fill:#fff"></path><path d="M293.84,256a3,3,0,0,1,2.37.91,3.2,3.2,0,0,1,.65,2.17V261a3,3,0,0,1-1,2.3l1.4,5.61h-2.09L294,264h-1.29l0,4.84h-1.94l.07-12.84Zm1.14,3.1a1,1,0,0,0-1.1-1.12h-1.17l0,4.11h1.17a1.1,1.1,0,0,0,.78-.32A1.07,1.07,0,0,0,295,261Z" style="fill:#fff"></path><path d="M300.81,268.91h-1.94l.07-12.84h1.94Z" style="fill:#fff"></path><path d="M305.59,269.1a3.06,3.06,0,0,1-3-3.08l0-7a3.08,3.08,0,0,1,5.26-2.15,3,3,0,0,1,.88,2.18v1.47h-2V259a1,1,0,0,0-.32-.79,1.07,1.07,0,0,0-.79-.33,1,1,0,0,0-.78.32,1.07,1.07,0,0,0-.33.79l0,7a1.09,1.09,0,0,0,1.1,1.11,1.12,1.12,0,0,0,.8-.31,1.16,1.16,0,0,0,.33-.79V263.5H305.6v-1.95h3.09l0,4.49a3.07,3.07,0,0,1-3.09,3.05Z" style="fill:#fff"></path><path d="M312.31,263.53l0,5.44h-1.94l.07-12.84h1.94l0,5.45h2.33l0-5.45h1.94L316.55,269l-1.94,0,0-5.44Z" style="fill:#fff"></path><path d="M320.23,258.12h-2.06v-1.95l6,0v1.95h-2L322.11,269h-1.94Z" style="fill:#fff"></path><path d="M331.91,265.88a3.61,3.61,0,0,1-.71,2.29,2.44,2.44,0,0,1-1.34.9,3.43,3.43,0,0,1-1.07.14,3,3,0,0,1-1.89-.57,3.2,3.2,0,0,1-1-1.26,4.91,4.91,0,0,1-.41-1.82l1.84-.13a2.81,2.81,0,0,0,.59,1.63,1,1,0,0,0,.8.37,1.19,1.19,0,0,0,1-.62,1.55,1.55,0,0,0,.2-.85,2.3,2.3,0,0,0-.72-1.6l-1.71-1.64a7,7,0,0,1-1.35-1.68,3.68,3.68,0,0,1-.42-1.8,3.11,3.11,0,0,1,1.19-2.65,2.94,2.94,0,0,1,1.8-.54,3.39,3.39,0,0,1,1.78.47,2.73,2.73,0,0,1,.92,1,3.69,3.69,0,0,1,.41,1.49l-1.85.33a2.15,2.15,0,0,0-.45-1.23.94.94,0,0,0-.76-.33.91.91,0,0,0-.82.47,1.92,1.92,0,0,0-.23.94,2.86,2.86,0,0,0,.75,1.8,6.32,6.32,0,0,0,.86.83c.45.37.74.64.89.79a6.73,6.73,0,0,1,1.1,1.42,4.7,4.7,0,0,1,.29.61A3.47,3.47,0,0,1,331.91,265.88Z" style="fill:#fff"></path><path d="M291.69,231.16s-.95-2.16-.11-2.46,4.77-1.28,5.19-1a4.6,4.6,0,0,1,1.06,2.77C297.67,231,293.84,231.3,291.69,231.16Z" style="fill:#e4897b"></path></g><g id="freepik--character-2--inject-32"><path d="M273.61,210.5l-.68-6.89a19.22,19.22,0,0,1-2.06-2.9c-.41-1,4.42-6.16,4.93-6a17.71,17.71,0,0,1,3.93,3.64c.36.72-3.46,5-3.46,5l2,6.28Z" style="fill:#ebb376"></path><path d="M281.36,236.19c-3.2,4.73-14.58-5.55-20.69-11.68-2.38-2.39-4-4.14-4-4.14l1.13-3.7,3.67-10c3,1,13.36,19.88,13.36,19.88l-2.09-19.08,5.43-.5S285.81,229.62,281.36,236.19Z" style="fill:#2D2E35"></path><path d="M260.67,224.51c-2.38-2.39-4-4.14-4-4.14l1.13-3.7A21.47,21.47,0,0,1,260.67,224.51Z" style="opacity:0.2;isolation:isolate"></path><path d="M238.22,169.79a8,8,0,0,1,6.66-4.35c5-.49,16.91,5.43,18.39,14.78s.82,18.37-1.95,19.5c0,0-3.39-2.58-16.65,1.31s-13-5.21-12.63-12.52S228.6,168.91,238.22,169.79Z" style="fill:#263238"></path><path d="M261.51,206.67c-.75,2-1.43,3.92-2.06,5.72-.84,2.37-1.6,4.57-2.28,6.62-1.28,3.84-2.28,7.16-3.09,10.14A113.59,113.59,0,0,0,249.89,252l-30.78-3.32c-.59-15.93-.34-26.65.1-33.66.18-2.68.37-4.82.56-6.5s.45-3.27.75-4.89c.91-4.95,2.11-9.4,2.11-9.4s2.25,1.15,6.18,2.75a133.22,133.22,0,0,0,19.79,6.26c2.33.54,4.66,1.06,7,1.65C257.57,205.44,259.56,206,261.51,206.67Z" style="fill:#2D2E35"></path><polygon points="277.43 412.15 271.12 413.26 268.53 404.66 266.17 396.77 273.44 394.23 275.56 403.71 277.43 412.15" style="fill:#ebb376"></polygon><polygon points="275.59 403.91 268.56 404.83 266.19 396.86 273.45 394.27 275.59 403.91" style="opacity:0.2;isolation:isolate"></polygon><polygon points="235.32 415.06 228.91 415.06 227.86 406.03 226.91 397.8 234.51 396.54 234.94 406.34 235.32 415.06" style="fill:#ebb376"></polygon><polygon points="234.94 406.42 227.86 406.11 226.91 397.84 234.51 396.56 234.94 406.42" style="opacity:0.2;isolation:isolate"></polygon><path d="M276.19,398.9l-10.37,1.83c-10.47-26.07-17.91-47.83-23.17-65.89-2.83-9.74-5.19-18.41-6.88-26.09l.31,28.38v63.93H225.86c-25.61-122-7.29-152.46-7.29-152.46l30.48-2.45a140.43,140.43,0,0,1,2.56,17.22L253,273.53l12,61.87Z" style="fill:#263238"></path><path d="M242.65,334.84c-2.83-9.74-5-18.41-6.73-26.09a240.2,240.2,0,0,1,2-27.22S242.39,316.63,242.65,334.84Z" style="opacity:0.2;isolation:isolate"></path><polygon points="219.01 243.7 250.58 245.55 250.08 251 218.27 249.08 219.01 243.7"></polygon><path d="M240.79,245.19a2.24,2.24,0,0,0-1.47-.72l-3.88-.24a1.6,1.6,0,0,0-1.76,1.67v2.49a2.33,2.33,0,0,0,1.93,2.23h.17l3.88.24a1.61,1.61,0,0,0,1.76-1.67v-2.49A2.27,2.27,0,0,0,240.79,245.19Zm-1.22,4.67-3.88-.23a1.05,1.05,0,0,1-.71-.35,1.09,1.09,0,0,1-.31-.74V246a.78.78,0,0,1,.86-.8l3.88.24h.08a1.07,1.07,0,0,1,.63.34,1.11,1.11,0,0,1,.3.74v.37l-.15,0-1.09-.08a.56.56,0,0,0-.6.63.78.78,0,0,0,.7.71l1.09.08h0v.82A.78.78,0,0,1,239.57,249.86Z" style="fill:#fff"></path><path d="M227.42,410.69c0-.67,8.23-.15,8.23-.15s5,5.14,10,6.3,2.17,4.1-3.32,4.1H228.72C224.82,420.94,227.25,417.62,227.42,410.69Z" style="fill:#263238"></path><path d="M240,412.65a10.12,10.12,0,0,1-3.4-1l-.08-.05h0l0-.05a.22.22,0,0,1,0-.16c0-.09.72-2,1.84-2.47a1.31,1.31,0,0,1,1.06,0q.57.27.54.69c0,.43-.61.87-1.28,1.22a3.46,3.46,0,0,1,1.85.21.88.88,0,0,1,.44.55.8.8,0,0,1-.2.88A1.15,1.15,0,0,1,240,412.65Zm-2.65-1.18c1.21.51,2.71,1,3.1.64,0,0,.14-.11.06-.43a.51.51,0,0,0-.24-.29A5.32,5.32,0,0,0,237.32,411.47Zm1.47-2.27a1.09,1.09,0,0,0-.34.07A3.74,3.74,0,0,0,237,411c1.22-.46,2.4-1.1,2.42-1.47,0-.12-.18-.22-.29-.28A.92.92,0,0,0,238.79,409.2Z" style="fill:#263238"></path><path d="M269.42,410.69c0-.67,8.23-.15,8.23-.15s5.05,5.14,10,6.3,2.17,4.1-3.32,4.1H270.72C266.82,420.94,269.25,417.62,269.42,410.69Z" style="fill:#263238"></path><path d="M282,412.65a10.12,10.12,0,0,1-3.4-1l-.08-.05h0l0-.05a.22.22,0,0,1,0-.16c0-.09.72-2,1.84-2.47a1.31,1.31,0,0,1,1.06,0q.57.27.54.69c0,.43-.61.87-1.28,1.22a3.46,3.46,0,0,1,1.85.21.88.88,0,0,1,.44.55.8.8,0,0,1-.2.88A1.15,1.15,0,0,1,282,412.65Zm-2.65-1.18c1.21.51,2.71,1,3.1.64,0,0,.14-.11.06-.43a.51.51,0,0,0-.24-.29A5.32,5.32,0,0,0,279.32,411.47Zm1.47-2.27a1.09,1.09,0,0,0-.34.07A3.74,3.74,0,0,0,279,411c1.22-.46,2.4-1.1,2.42-1.47,0-.12-.18-.22-.29-.28A.92.92,0,0,0,280.79,409.2Z" style="fill:#263238"></path><path d="M241.72,209.77c-6.49-3.44-7.45-7.13-7.45-7.13,5.88-2.46,4.95-10.89,4.95-10.89l7.64,4.63a26.25,26.25,0,0,0-1.63,3.34c-1.94,5,.29,5.86.29,5.86C246,208.83,241.72,209.77,241.72,209.77Z" style="fill:#ebb376"></path><path d="M246.86,196.38a26.25,26.25,0,0,0-1.63,3.34c-5.55-2.1-6-8-6-8Z" style="opacity:0.2;isolation:isolate"></path><path d="M265.43,187.67h-.05a.25.25,0,0,1-.2-.29,19.42,19.42,0,0,0-7.13-17c-8.56-7.11-13.07-2-13.26-1.77a.25.25,0,0,1-.38-.33c.05-.06,5-5.72,14,1.72a19.91,19.91,0,0,1,7.3,17.47A.25.25,0,0,1,265.43,187.67Z" style="fill:#263238"></path><path d="M270.67,188.94c-.85-3-3.45-4.93-5.81-4.27s-3.58,3.65-2.73,6.67,3.44,4.93,5.8,4.27S271.52,192,270.67,188.94Z" style="fill:#2D2E35"></path><path d="M289.82,183.69,287,173s-5.42,6.81-11.26,8.44l1.49,5.3.23.83,1.49,5.3c5.83-1.63,14,1.36,14,1.36Z" style="fill:#2D2E35"></path><path d="M270.67,188.94c-.85-3-3.45-4.93-5.81-4.27s-3.58,3.65-2.73,6.67,3.44,4.93,5.8,4.27S271.52,192,270.67,188.94Z" style="fill:#fff;opacity:0.8;isolation:isolate"></path><path d="M289.82,183.69,287,173s-5.42,6.81-11.26,8.44l1.49,5.3.23.83,1.49,5.3c5.83-1.63,14,1.36,14,1.36Z" style="fill:#fff;opacity:0.8;isolation:isolate"></path><path d="M269,194.37s2.41,6.26,5.4,9a.59.59,0,0,0,.76,0l3.83-2.95a.59.59,0,0,0,0-.94c-1.31-1-4.3-3.47-5.7-6.26C271.46,189.67,269,194.37,269,194.37Z" style="fill:#2D2E35"></path><path d="M269,194.37s2.41,6.26,5.4,9a.59.59,0,0,0,.76,0l3.83-2.95a.59.59,0,0,0,0-.94c-1.31-1-4.3-3.47-5.7-6.26C271.46,189.67,269,194.37,269,194.37Z" style="opacity:0.30000000000000004;isolation:isolate"></path><path d="M292.81,194.53c-1.34.38-3.78-4.17-5.46-10.14s-2-11.13-.61-11.51,3.78,4.17,5.46,10.15S294.14,194.16,292.81,194.53Z" style="fill:#fff"></path><path d="M292.7,192.86c-1,.28-2.9-3.29-4.34-8.11q-.12-.41-.24-.84c-.1-.34-.19-.67-.27-1-1.23-4.8-1.46-8.75-.47-9s3.13,3.71,4.6,9S293.77,192.56,292.7,192.86Z" style="opacity:0.4;isolation:isolate"></path><path d="M267.22,196.47s-1.05-1.2-2.36-5.85c-1.41-5-1-6.27-1-6.27l13-3.65s-.25,1.65,1.08,6.37,2.32,5.75,2.32,5.75Z" style="fill:#2D2E35"></path><path d="M288.36,184.75q-.12-.41-.24-.84c-.1-.34-.19-.67-.27-1l1.27-.09a.57.57,0,0,1,.58.46l.06.19a.59.59,0,0,1-.26.7Z" style="fill:#fff"></path><path d="M288.36,184.75q-.12-.41-.24-.84c-.1-.34-.19-.67-.27-1l1.27-.09a.57.57,0,0,1,.58.46l.06.19a.59.59,0,0,1-.26.7Z" style="opacity:0.2;isolation:isolate"></path><path d="M245.23,171.32c7.72-.43,10.43,3.57,11.43,11.49,1.25,9.89-.57,17.07-10.33,15.48C233.07,196.12,232.42,172,245.23,171.32Z" style="fill:#ebb376"></path><path d="M251.65,182.65a16.41,16.41,0,0,0,2.42,3.07,2.14,2.14,0,0,1-2,1Z" style="fill:#d58745"></path><path d="M246.89,182.28c.05.63-.25,1.17-.67,1.2s-.81-.45-.86-1.08.26-1.18.68-1.21S246.84,181.64,246.89,182.28Z" style="fill:#263238"></path><path d="M245.86,181.23l1.34-.64S246.6,181.8,245.86,181.23Z" style="fill:#263238"></path><path d="M254.75,181.53c.05.63-.25,1.17-.68,1.2s-.8-.45-.85-1.08.25-1.17.67-1.21S254.7,180.9,254.75,181.53Z" style="fill:#263238"></path><path d="M253.72,180.49l1.34-.65S254.46,181.05,253.72,180.49Z" style="fill:#263238"></path><path d="M247.75,178.64a4.58,4.58,0,0,1-3-1.34.36.36,0,1,1,.51-.5,3.72,3.72,0,0,0,3,1,.36.36,0,1,1,.16.71A3.5,3.5,0,0,1,247.75,178.64Z" style="fill:#263238"></path><path d="M252.19,178.26a.36.36,0,0,1,0-.72,3.28,3.28,0,0,0,2.57-1.17.36.36,0,0,1,.5-.1.37.37,0,0,1,.1.5,3.94,3.94,0,0,1-3.13,1.49Z" style="fill:#263238"></path><path d="M237.52,184.78s3.26-6.54,2.44-11.4c0,0,14.95-7.08,16.55,8.39,0,0,.74-13.86-12.54-13.44s-12.16,19.82-5,25.22C239,193.55,235.5,188.86,237.52,184.78Z" style="fill:#263238"></path><path d="M238.86,186.34a3.38,3.38,0,0,0-3.81-2.89c-2.37.39-3.24,5.36,2.77,6.21C238.68,189.78,239.11,188.92,238.86,186.34Z" style="fill:#ebb376"></path><path d="M249.48,192.82a4.55,4.55,0,0,0,.66.1l2.77-3.29s-.21-.14-.55-.34c-1.15-.71-3.81-2.12-5.31-1.27a3,3,0,0,0-.47.35,3,3,0,0,0-1,1.83C245.47,191.23,246.3,192.33,249.48,192.82Z" style="fill:#263238"></path><path d="M246.58,188.37l5.39,1.26.39-.34c-1.15-.71-3.81-2.12-5.31-1.27A3,3,0,0,0,246.58,188.37Z" style="fill:#fff"></path><path d="M249.48,192.82c.05-1.76-2.4-2.43-3.92-2.62C245.47,191.23,246.3,192.33,249.48,192.82Z" style="fill:#de5753"></path><path d="M255.58,204.93c-.9,4.09-5.26,11.11-14.36,8.62-11.47-3.14-12.54-12.43-12.41-16.53a133.22,133.22,0,0,0,19.79,6.26C250.93,203.82,253.26,204.34,255.58,204.93Z" style="fill:#ebb376"></path><path d="M212.86,162.52l6-5.11s-.43-.66.21-1.91,4.09-4.21,4.76-4,3.45,3.81,3.45,3.81l-4.4,5-1.62-.7-6.2,5.83Z" style="fill:#ebb376"></path><path d="M238.93,232.21a8,8,0,1,1,8-8A8,8,0,0,1,238.93,232.21Zm0-13a5,5,0,1,0,5,5A5,5,0,0,0,238.93,219.18Z" style="fill:#fff"></path><rect x="233.76" y="233.33" width="8.25" height="3" transform="translate(-15.8 452.48) rotate(-85.26)" style="fill:#fff"></rect><rect x="236.67" y="230.65" width="3" height="9" transform="translate(-13.66 455.62) rotate(-85.84)" style="fill:#fff"></rect><path d="M219.21,215.06c.18-2.68.37-4.82.56-6.5s.45-3.27.75-4.89a9.77,9.77,0,0,1,1.64-.1S224.12,212.26,219.21,215.06Z" style="opacity:0.2;isolation:isolate"></path><path d="M222.63,194.27c-7.92-4.63-14.44-13.61-14.84-17S220.65,162,220.65,162l-4.38-4.17s-16,14.14-16.59,18.75,8.93,22.27,20.09,32a20.79,20.79,0,0,0,2.86-6.6A17.12,17.12,0,0,0,222.63,194.27Z" style="fill:#2D2E35"></path></g></svg>